<?xml version="1.0" encoding="UTF-8" standalone="no"?>
<!DOCTYPE svg PUBLIC "-//W3C//DTD SVG 1.1//EN"
 "http://www.w3.org/Graphics/SVG/1.1/DTD/svg11.dtd">
<!-- Generated by graphviz version 2.43.0 (0)
 -->
<!-- Title: tpose Pages: 1 -->
<svg width="663pt" height="44pt"
 viewBox="0.00 0.00 662.68 44.00" xmlns="http://www.w3.org/2000/svg" xmlns:xlink="http://www.w3.org/1999/xlink">
<g id="graph0" class="graph" transform="scale(1 1) rotate(0) translate(4 40)">
<title>tpose</title>
<polygon fill="white" stroke="transparent" points="-4,4 -4,-40 658.68,-40 658.68,4 -4,4"/>
<!-- src -->
<g id="node1" class="node">
<title>src</title>
<ellipse fill="none" stroke="black" cx="27" cy="-18" rx="27" ry="18"/>
<text text-anchor="middle" x="27" y="-14.3" font-family="Times,serif" font-size="14.00">src</text>
</g>
<!-- src_tpose -->
<g id="node2" class="node">
<title>src_tpose</title>
<ellipse fill="none" stroke="black" cx="202.6" cy="-18" rx="54.69" ry="18"/>
<text text-anchor="middle" x="202.6" y="-14.3" font-family="Times,serif" font-size="14.00">src_tpose</text>
</g>
<!-- src&#45;&gt;src_tpose -->
<g id="edge1" class="edge">
<title>src&#45;&gt;src_tpose</title>
<path fill="none" stroke="black" stroke-dasharray="5,2" d="M54.37,-18C76.51,-18 109.07,-18 137.95,-18"/>
<polygon fill="black" stroke="black" points="137.99,-21.5 147.99,-18 137.99,-14.5 137.99,-21.5"/>
<text text-anchor="middle" x="101" y="-21.8" font-family="Times,serif" font-size="14.00">座標変換</text>
</g>
<!-- dst_tpose -->
<g id="node3" class="node">
<title>dst_tpose</title>
<ellipse fill="none" stroke="black" cx="451.44" cy="-18" rx="55.49" ry="18"/>
<text text-anchor="middle" x="451.44" y="-14.3" font-family="Times,serif" font-size="14.00">dst_tpose</text>
</g>
<!-- src_tpose&#45;&gt;dst_tpose -->
<g id="edge2" class="edge">
<title>src_tpose&#45;&gt;dst_tpose</title>
<path fill="none" stroke="black" d="M257.46,-18C295.17,-18 345.75,-18 385.67,-18"/>
<polygon fill="black" stroke="black" points="385.83,-21.5 395.83,-18 385.83,-14.5 385.83,-21.5"/>
<text text-anchor="middle" x="326.69" y="-21.8" font-family="Times,serif" font-size="14.00">体格差retarget</text>
</g>
<!-- dst -->
<g id="node4" class="node">
<title>dst</title>
<ellipse fill="none" stroke="black" cx="627.68" cy="-18" rx="27" ry="18"/>
<text text-anchor="middle" x="627.68" y="-14.3" font-family="Times,serif" font-size="14.00">dst</text>
</g>
<!-- dst_tpose&#45;&gt;dst -->
<g id="edge3" class="edge">
<title>dst_tpose&#45;&gt;dst</title>
<path fill="none" stroke="black" stroke-dasharray="5,2" d="M507.09,-18C534.21,-18 566.24,-18 590.32,-18"/>
<polygon fill="black" stroke="black" points="590.45,-21.5 600.45,-18 590.45,-14.5 590.45,-21.5"/>
<text text-anchor="middle" x="553.68" y="-21.8" font-family="Times,serif" font-size="14.00">座標変換</text>
</g>
</g>
</svg>
