<?xml version="1.0" encoding="UTF-8" standalone="no"?>
<!DOCTYPE svg PUBLIC "-//W3C//DTD SVG 1.1//EN"
 "http://www.w3.org/Graphics/SVG/1.1/DTD/svg11.dtd">
<!-- Generated by graphviz version 2.43.0 (0)
 -->
<!-- Title: tpose Pages: 1 -->
<svg width="1172pt" height="188pt"
 viewBox="0.00 0.00 1171.62 188.00" xmlns="http://www.w3.org/2000/svg" xmlns:xlink="http://www.w3.org/1999/xlink">
<g id="graph0" class="graph" transform="scale(1 1) rotate(0) translate(4 184)">
<title>tpose</title>
<polygon fill="white" stroke="transparent" points="-4,4 -4,-184 1167.62,-184 1167.62,4 -4,4"/>
<!-- vpd/vmd(A stance + world coord) -->
<g id="node1" class="node">
<title>vpd/vmd(A stance + world coord)</title>
<ellipse fill="none" stroke="black" cx="165.74" cy="-162" rx="165.97" ry="18"/>
<text text-anchor="middle" x="165.74" y="-158.3" font-family="Times,serif" font-size="14.00">vpd/vmd(A stance + world coord)</text>
</g>
<!-- strict tpose -->
<g id="node2" class="node">
<title>strict tpose</title>
<ellipse fill="none" stroke="black" cx="574.74" cy="-90" rx="63.89" ry="18"/>
<text text-anchor="middle" x="574.74" y="-86.3" font-family="Times,serif" font-size="14.00">strict tpose</text>
</g>
<!-- vpd/vmd(A stance + world coord)&#45;&gt;strict tpose -->
<g id="edge1" class="edge">
<title>vpd/vmd(A stance + world coord)&#45;&gt;strict tpose</title>
<path fill="none" stroke="black" d="M250.48,-146.5C328.2,-133.19 441.55,-113.79 511.59,-101.81"/>
<polygon fill="black" stroke="black" points="512.34,-105.23 521.6,-100.09 511.15,-98.33 512.34,-105.23"/>
</g>
<!-- vrm&#45;0.x (T stance world coord) -->
<g id="node5" class="node">
<title>vrm&#45;0.x (T stance world coord)</title>
<ellipse fill="none" stroke="black" cx="414.74" cy="-18" rx="153.27" ry="18"/>
<text text-anchor="middle" x="414.74" y="-14.3" font-family="Times,serif" font-size="14.00">vrm&#45;0.x (T stance world coord)</text>
</g>
<!-- strict tpose&#45;&gt;vrm&#45;0.x (T stance world coord) -->
<g id="edge4" class="edge">
<title>strict tpose&#45;&gt;vrm&#45;0.x (T stance world coord)</title>
<path fill="none" stroke="black" d="M541.58,-74.5C518.51,-64.4 487.42,-50.8 461.79,-39.58"/>
<polygon fill="black" stroke="black" points="463.18,-36.37 452.62,-35.57 460.38,-42.79 463.18,-36.37"/>
</g>
<!-- vrm&#45;1.0 (T stance local coord) -->
<g id="node6" class="node">
<title>vrm&#45;1.0 (T stance local coord)</title>
<ellipse fill="none" stroke="black" cx="734.74" cy="-18" rx="148.67" ry="18"/>
<text text-anchor="middle" x="734.74" y="-14.3" font-family="Times,serif" font-size="14.00">vrm&#45;1.0 (T stance local coord)</text>
</g>
<!-- strict tpose&#45;&gt;vrm&#45;1.0 (T stance local coord) -->
<g id="edge5" class="edge">
<title>strict tpose&#45;&gt;vrm&#45;1.0 (T stance local coord)</title>
<path fill="none" stroke="black" d="M607.89,-74.5C631.04,-64.37 662.27,-50.7 687.96,-39.47"/>
<polygon fill="black" stroke="black" points="689.38,-42.66 697.14,-35.45 686.58,-36.25 689.38,-42.66"/>
</g>
<!-- motion capture / bvh (T stance + world coord) -->
<g id="node3" class="node">
<title>motion capture / bvh (T stance + world coord)</title>
<ellipse fill="none" stroke="black" cx="574.74" cy="-162" rx="224.76" ry="18"/>
<text text-anchor="middle" x="574.74" y="-158.3" font-family="Times,serif" font-size="14.00">motion capture / bvh (T stance + world coord)</text>
</g>
<!-- motion capture / bvh (T stance + world coord)&#45;&gt;strict tpose -->
<g id="edge2" class="edge">
<title>motion capture / bvh (T stance + world coord)&#45;&gt;strict tpose</title>
<path fill="none" stroke="black" d="M574.74,-143.7C574.74,-135.98 574.74,-126.71 574.74,-118.11"/>
<polygon fill="black" stroke="black" points="578.24,-118.1 574.74,-108.1 571.24,-118.1 578.24,-118.1"/>
</g>
<!-- mediapipe / kinect (position based) -->
<g id="node4" class="node">
<title>mediapipe / kinect (position based)</title>
<ellipse fill="none" stroke="black" cx="990.74" cy="-162" rx="172.77" ry="18"/>
<text text-anchor="middle" x="990.74" y="-158.3" font-family="Times,serif" font-size="14.00">mediapipe / kinect (position based)</text>
</g>
<!-- mediapipe / kinect (position based)&#45;&gt;strict tpose -->
<g id="edge3" class="edge">
<title>mediapipe / kinect (position based)&#45;&gt;strict tpose</title>
<path fill="none" stroke="black" d="M904.03,-146.41C824.71,-133.06 709.21,-113.63 638.19,-101.68"/>
<polygon fill="black" stroke="black" points="638.48,-98.18 628.04,-99.97 637.32,-105.08 638.48,-98.18"/>
</g>
</g>
</svg>
